<?xml version="1.0"?>
<svg xmlns="http://www.w3.org/2000/svg" xmlns:xlink="http://www.w3.org/1999/xlink" xmlns:svgjs="http://svgjs.com/svgjs" version="1.1" width="512" height="512" x="0" y="0" viewBox="0 0 368 368" style="enable-background:new 0 0 512 512" xml:space="preserve" class=""><g><script/><path xmlns="http://www.w3.org/2000/svg" d="m312 184c0 70.691406-57.308594 128-128 128s-128-57.308594-128-128 57.308594-128 128-128 128 57.308594 128 128zm0 0" fill="#cce4ff" data-original="#cce4ff" style="" class=""/><g xmlns="http://www.w3.org/2000/svg" fill="#007aff"><path d="m184 368c101.464844 0 184-82.542969 184-184s-82.535156-184-184-184-184 82.542969-184 184 82.535156 184 184 184zm0-352c92.632812 0 168 75.359375 168 168s-75.367188 168-168 168-168-75.359375-168-168 75.367188-168 168-168zm0 0" fill="#1f81ce" data-original="#007aff" style="" class=""/><path d="m184 320c74.992188 0 136-61.007812 136-136s-61.007812-136-136-136-136 61.007812-136 136 61.007812 136 136 136zm0-256c66.167969 0 120 53.832031 120 120s-53.832031 120-120 120-120-53.832031-120-120 53.832031-120 120-120zm0 0" fill="#1f81ce" data-original="#007aff" style="" class=""/><path d="m120 192h27.054688l-18.207032 36.425781c-1.238281 2.476563-1.113281 5.421875.351563 7.78125 1.457031 2.351563 4.023437 3.792969 6.800781 3.792969h96c4.425781 0 8-3.585938 8-8s-3.574219-8-8-8h-83.054688l16-32h51.054688c4.425781 0 8-3.585938 8-8s-3.574219-8-8-8h-43.054688l18.207032-36.425781c1.976562-3.949219.375-8.757813-3.578125-10.734375-3.957031-1.976563-8.75-.375-10.734375 3.574218l-21.785156 43.585938h-35.054688c-4.425781 0-8 3.585938-8 8s3.574219 8 8 8zm0 0" fill="#1f81ce" data-original="#007aff" style="" class=""/></g></g></svg>
